<svg width="24" height="30" viewBox="0 0 24 30" fill="none" xmlns="http://www.w3.org/2000/svg">
<path d="M19.9966 28.1564C18.4459 29.7044 16.7527 29.46 15.1229 28.7267C13.3981 27.9772 11.8157 27.9446 9.99598 28.7267C7.71736 29.737 6.51476 29.4437 5.15392 28.1564C-2.56807 19.9604 -1.42876 7.47906 7.3376 7.02282C9.4738 7.13688 10.9612 8.22859 12.2113 8.32636C14.0785 7.93529 15.8666 6.81099 17.8604 6.95764C20.2498 7.15317 22.0537 8.13083 23.2405 9.8906C18.3035 12.9376 19.4744 19.6346 24 21.5084C23.098 23.9525 21.9271 26.3804 19.9808 28.1727L19.9966 28.1564ZM12.0531 6.92505C11.8157 3.29144 14.6798 0.293296 17.9712 0C18.43 4.20391 14.2684 7.33241 12.0531 6.92505Z" fill="black"/>
</svg>
