<svg width="20" height="21" viewBox="0 0 20 21" fill="none" xmlns="http://www.w3.org/2000/svg">
<path d="M0 1.28873V19.7106C0.000123416 19.7506 0.012044 19.7896 0.034267 19.8228C0.05649 19.8561 0.0880261 19.882 0.124921 19.8973C0.161816 19.9127 0.202427 19.9168 0.241661 19.9092C0.280896 19.9016 0.317008 19.8826 0.345469 19.8545L9.9375 10.5001L0.345469 1.14483C0.317008 1.11677 0.280896 1.09773 0.241661 1.09011C0.202427 1.08249 0.161816 1.08663 0.124921 1.102C0.0880261 1.11737 0.05649 1.14329 0.034267 1.1765C0.012044 1.20972 0.000123416 1.24877 0 1.28873ZM13.9594 6.65639L1.93219 0.0301398L1.92469 0.025921C1.7175 -0.086579 1.52062 0.193734 1.69031 0.356859L11.1183 9.37186L13.9594 6.65639ZM1.69125 20.6434C1.52062 20.8065 1.7175 21.0869 1.92562 20.9744L1.93312 20.9701L13.9594 14.3439L11.1183 11.6275L1.69125 20.6434ZM18.8147 9.32826L15.4561 7.47858L12.2981 10.5001L15.4561 13.5203L18.8147 11.672C19.7283 11.1672 19.7283 9.83311 18.8147 9.32826Z" fill="white"/>
</svg>
