<svg width="67" height="50" viewBox="0 0 67 50" fill="none" xmlns="http://www.w3.org/2000/svg">
<path d="M66.5051 12.4033L66.4217 11.8433L66.3351 11.8633C65.7428 9.09345 64.3783 6.54789 62.3995 4.52117C60.4208 2.49445 57.9086 1.06941 55.1537 0.410945C52.3988 -0.247524 49.5138 -0.112512 46.8324 0.800359C44.151 1.71323 41.7829 3.36665 40.0021 5.56931C38.2213 7.77197 37.1005 10.4338 36.7695 13.2469C36.4384 16.06 36.9107 18.9093 38.1315 21.4652C39.3524 24.0211 41.2719 26.1791 43.6681 27.6895C46.0643 29.1999 48.8392 30.001 51.6717 30C52.4151 30 53.1284 29.8867 53.8384 29.7833C53.6084 30.5567 53.3717 31.3433 52.9917 32.05C52.6117 33.0767 52.0184 33.9667 51.4284 34.8633C50.9351 35.8333 50.0651 36.49 49.4251 37.32C48.7551 38.1267 47.8417 38.6633 47.1184 39.3333C46.4084 40.0333 45.4784 40.3833 44.7384 40.8767C43.9651 41.32 43.2917 41.81 42.5717 42.0433L40.7751 42.7833L39.1951 43.44L40.8084 49.9033L42.7984 49.4233C43.4351 49.2633 44.2117 49.0767 45.0951 48.8533C45.9984 48.6867 46.9617 48.23 48.0351 47.8133C49.0917 47.3367 50.3217 47.02 51.4617 46.2567C52.6084 45.53 53.9317 44.9233 55.0984 43.95C56.2284 42.9467 57.5917 42.0767 58.5984 40.8033C59.6984 39.61 60.7851 38.3567 61.6284 36.93C62.6051 35.57 63.2684 34.0767 63.9684 32.6C64.6017 31.1233 65.1117 29.6133 65.5284 28.1467C66.3184 25.2067 66.6717 22.4133 66.8084 20.0233C66.9217 17.63 66.8551 15.64 66.7151 14.2C66.6682 13.5986 66.5982 12.9993 66.5051 12.4033ZM29.8384 12.4033L29.7551 11.8433L29.6684 11.8633C29.0761 9.09345 27.7116 6.54789 25.7329 4.52117C23.7541 2.49445 21.2419 1.06941 18.487 0.410945C15.7321 -0.247524 12.8471 -0.112512 10.1657 0.800359C7.48437 1.71323 5.11628 3.36665 3.33545 5.56931C1.55462 7.77197 0.433843 10.4338 0.102804 13.2469C-0.228236 16.06 0.243989 18.9093 1.46484 21.4652C2.68569 24.0211 4.60527 26.1791 7.00147 27.6895C9.39767 29.1999 12.1726 30.001 15.0051 30C15.7484 30 16.4617 29.8867 17.1717 29.7833C16.9417 30.5567 16.7051 31.3433 16.3251 32.05C15.9451 33.0767 15.3517 33.9667 14.7617 34.8633C14.2684 35.8333 13.3984 36.49 12.7584 37.32C12.0884 38.1267 11.1751 38.6633 10.4517 39.3333C9.74172 40.0333 8.81172 40.3833 8.07172 40.8767C7.29839 41.32 6.62505 41.81 5.90505 42.0433L4.10839 42.7833C3.10505 43.1933 2.53172 43.4333 2.53172 43.4333L4.14505 49.8967L6.13505 49.4167C6.77172 49.2567 7.54839 49.07 8.43172 48.8467C9.33505 48.68 10.2984 48.2233 11.3717 47.8067C12.4284 47.33 13.6584 47.0133 14.7984 46.25C15.9451 45.5233 17.2684 44.9167 18.4351 43.9433C19.5651 42.94 20.9284 42.07 21.9351 40.7967C23.0351 39.6033 24.1217 38.35 24.9651 36.9233C25.9417 35.5633 26.6051 34.07 27.3051 32.5933C27.9384 31.1167 28.4484 29.6067 28.8651 28.14C29.6551 25.2 30.0084 22.4067 30.1451 20.0167C30.2584 17.6233 30.1917 15.6333 30.0517 14.1933C30.002 13.5943 29.9308 12.9973 29.8384 12.4033Z" fill="#141B23"/>
</svg>
