<svg width="48" height="48" viewBox="0 0 48 48" fill="none" xmlns="http://www.w3.org/2000/svg">
<g opacity="0.4">
<rect x="-0.5" y="0.5" width="47" height="47" rx="23.5" transform="matrix(-1 0 0 1 47 0)" stroke="#232C31"/>
<path d="M25.7127 26.7344C25.8158 26.8385 25.8737 26.9791 25.8737 27.1256C25.8737 27.2721 25.8158 27.4127 25.7127 27.5168C25.6621 27.5682 25.6018 27.609 25.5352 27.6369C25.4687 27.6647 25.3973 27.6791 25.3251 27.6791C25.253 27.6791 25.1816 27.6647 25.115 27.6369C25.0485 27.609 24.9882 27.5682 24.9375 27.5168L21.8735 24.3904C21.7706 24.286 21.7129 24.1453 21.7129 23.9988C21.7129 23.8522 21.7706 23.7115 21.8735 23.6072L24.9375 20.4808C24.9882 20.4294 25.0485 20.3886 25.115 20.3607C25.1816 20.3328 25.253 20.3185 25.3251 20.3185C25.3973 20.3185 25.4687 20.3328 25.5352 20.3607C25.6018 20.3886 25.6621 20.4294 25.7127 20.4808C25.8158 20.5849 25.8737 20.7255 25.8737 20.872C25.8737 21.0185 25.8158 21.1591 25.7127 21.2632L23.1999 24L25.7127 26.7344Z" fill="black"/>
</g>
</svg>
