<svg width="48" height="48" viewBox="0 0 48 48" fill="none" xmlns="http://www.w3.org/2000/svg">
<rect width="48" height="48" rx="24" fill="black"/>
<path d="M24.7997 24L22.2869 21.264C22.1838 21.1599 22.126 21.0193 22.126 20.8728C22.126 20.7263 22.1838 20.5857 22.2869 20.4816C22.3375 20.4302 22.3978 20.3894 22.4644 20.3615C22.5309 20.3337 22.6023 20.3193 22.6745 20.3193C22.7466 20.3193 22.818 20.3337 22.8846 20.3615C22.9511 20.3894 23.0115 20.4302 23.0621 20.4816L26.1261 23.608C26.229 23.7124 26.2867 23.8531 26.2867 23.9996C26.2867 24.1462 26.229 24.2869 26.1261 24.3912L23.0621 27.5176C23.0115 27.569 22.9511 27.6098 22.8846 27.6377C22.818 27.6656 22.7466 27.6799 22.6745 27.6799C22.6023 27.6799 22.5309 27.6656 22.4644 27.6377C22.3978 27.6098 22.3375 27.569 22.2869 27.5176C22.1838 27.4135 22.126 27.2729 22.126 27.1264C22.126 26.9799 22.1838 26.8393 22.2869 26.7352L24.7997 24Z" fill="white"/>
</svg>
