<svg width="24" height="24" viewBox="0 0 24 24" fill="none" xmlns="http://www.w3.org/2000/svg">
<path d="M4 7.99997H16L14.788 4.96997C14.6867 4.71685 14.6381 4.44568 14.6454 4.17312C14.6527 3.90056 14.7157 3.63237 14.8304 3.38503C14.9451 3.13769 15.1092 2.91641 15.3126 2.73481C15.5159 2.5532 15.7543 2.41509 16.013 2.32897L16.353 2.21597C16.5438 2.15224 16.7494 2.14764 16.9428 2.20278C17.1362 2.25792 17.3085 2.37023 17.437 2.52497L21.769 7.72197C21.9184 7.90179 22.0001 8.12821 22 8.36197V19C22 19.5304 21.7893 20.0391 21.4142 20.4142C21.0391 20.7893 20.5304 21 20 21H12.79C12.298 20.9998 11.8233 20.8182 11.4567 20.49C11.0901 20.1618 10.8574 19.71 10.803 19.221L10 12H4C3.46957 12 2.96086 11.7893 2.58579 11.4142C2.21071 11.0391 2 10.5304 2 9.99997C2 9.46954 2.21071 8.96083 2.58579 8.58576C2.96086 8.21068 3.46957 7.99997 4 7.99997Z" fill="black"/>
</svg>
