<svg width="15" height="15" viewBox="0 0 15 15" fill="none" xmlns="http://www.w3.org/2000/svg">
<path d="M8.66104 6.19651L9.84354 5.01484C9.35741 4.58042 8.75455 4.29808 8.1096 4.20279C7.46464 4.1075 6.80589 4.20344 6.2149 4.47873C5.62391 4.75402 5.12663 5.19657 4.7846 5.75161C4.44257 6.30665 4.27082 6.94981 4.2906 7.60147C4.31038 8.25313 4.52083 8.88468 4.89589 9.41795C5.27096 9.95122 5.79417 10.3628 6.40077 10.6017C7.00737 10.8407 7.67072 10.8965 8.30871 10.7622C8.9467 10.628 9.53132 10.3096 9.99021 9.84651L8.89604 8.75235H8.72104C8.48278 8.96152 8.1898 9.0984 7.87648 9.14692C7.56316 9.19543 7.2425 9.15357 6.95213 9.02624C6.66177 8.89892 6.41374 8.69141 6.23717 8.42807C6.0606 8.16474 5.9628 7.8565 5.95526 7.53954C5.94771 7.22257 6.03073 6.91003 6.19458 6.63859C6.35842 6.36715 6.59629 6.14808 6.88027 6.00708C7.16425 5.86609 7.48255 5.80902 7.79783 5.84257C8.1131 5.87612 8.41226 5.99891 8.66021 6.19651H8.66104Z" fill="#C7C2CA"/>
<path fill-rule="evenodd" clip-rule="evenodd" d="M7.5 0C8.48491 -1.46764e-08 9.46018 0.193993 10.3701 0.570903C11.2801 0.947814 12.1069 1.50026 12.8033 2.1967C13.4997 2.89314 14.0522 3.71993 14.4291 4.62987C14.806 5.53982 15 6.51509 15 7.5C15 8.48491 14.806 9.46018 14.4291 10.3701C14.0522 11.2801 13.4997 12.1069 12.8033 12.8033C12.1069 13.4997 11.2801 14.0522 10.3701 14.4291C9.46018 14.806 8.48491 15 7.5 15C5.51088 15 3.60322 14.2098 2.1967 12.8033C0.790176 11.3968 0 9.48912 0 7.5C0 5.51088 0.790176 3.60322 2.1967 2.1967C3.60322 0.790176 5.51088 2.96403e-08 7.5 0ZM7.5 1.66667C8.26604 1.66667 9.02459 1.81755 9.73232 2.1107C10.4401 2.40386 11.0831 2.83354 11.6248 3.37521C12.1665 3.91689 12.5961 4.55995 12.8893 5.26768C13.1825 5.97541 13.3333 6.73396 13.3333 7.5C13.3333 8.26604 13.1825 9.02459 12.8893 9.73232C12.5961 10.4401 12.1665 11.0831 11.6248 11.6248C11.0831 12.1665 10.4401 12.5961 9.73232 12.8893C9.02459 13.1825 8.26604 13.3333 7.5 13.3333C5.9529 13.3333 4.46917 12.7188 3.37521 11.6248C2.28125 10.5308 1.66667 9.0471 1.66667 7.5C1.66667 5.9529 2.28125 4.46917 3.37521 3.37521C4.46917 2.28125 5.9529 1.66667 7.5 1.66667Z" fill="#C7C2CA"/>
</svg>
