<svg width="32" height="32" viewBox="0 0 32 32" fill="none" xmlns="http://www.w3.org/2000/svg">
<circle cx="16" cy="16" r="16" fill="white" fill-opacity="0.22"/>
<path d="M15.998 11.3631C14.7717 11.3631 13.5955 11.8493 12.7284 12.7147C11.8612 13.5802 11.374 14.754 11.374 15.9779C11.374 17.2018 11.8612 18.3756 12.7284 19.241C13.5955 20.1064 14.7717 20.5926 15.998 20.5926C17.2244 20.5926 18.4005 20.1064 19.2677 19.241C20.1349 18.3756 20.622 17.2018 20.622 15.9779C20.622 14.754 20.1349 13.5802 19.2677 12.7147C18.4005 11.8493 17.2244 11.3631 15.998 11.3631ZM15.998 18.9749C15.2013 18.9749 14.4372 18.659 13.8739 18.0968C13.3105 17.5345 12.994 16.772 12.994 15.9769C12.994 15.1818 13.3105 14.4192 13.8739 13.857C14.4372 13.2947 15.2013 12.9789 15.998 12.9789C16.7947 12.9789 17.5588 13.2947 18.1222 13.857C18.6855 14.4192 19.002 15.1818 19.002 15.9769C19.002 16.772 18.6855 17.5345 18.1222 18.0968C17.5588 18.659 16.7947 18.9749 15.998 18.9749Z" fill="white" fill-opacity="0.52"/>
<path d="M20.8046 12.2692C21.3999 12.2692 21.8826 11.7876 21.8826 11.1934C21.8826 10.5992 21.3999 10.1176 20.8046 10.1176C20.2092 10.1176 19.7266 10.5992 19.7266 11.1934C19.7266 11.7876 20.2092 12.2692 20.8046 12.2692Z" fill="white" fill-opacity="0.52"/>
<path d="M24.5339 10.0998C24.3024 9.50317 23.9487 8.96136 23.4953 8.50904C23.0419 8.05672 22.4988 7.70386 21.9009 7.47305C21.2013 7.21094 20.4621 7.0692 19.7149 7.05389C18.7519 7.01198 18.4469 7 16.0049 7C13.5629 7 13.2499 7 12.2949 7.05389C11.5483 7.06842 10.8097 7.21018 10.1109 7.47305C9.51287 7.70359 8.96969 8.05636 8.51626 8.50871C8.06283 8.96106 7.70916 9.50302 7.47793 10.0998C7.21523 10.798 7.07354 11.5358 7.05893 12.2814C7.01593 13.2415 7.00293 13.5459 7.00293 15.984C7.00293 18.4212 7.00293 18.7315 7.05893 19.6866C7.07393 20.4331 7.21493 21.1697 7.47793 21.8693C7.70981 22.4658 8.06383 23.0076 8.51737 23.4599C8.97091 23.9121 9.51399 24.265 10.1119 24.496C10.8094 24.7687 11.5483 24.9205 12.2969 24.9451C13.2599 24.987 13.5649 25 16.0069 25C18.4489 25 18.7619 25 19.7169 24.9451C20.464 24.9299 21.2032 24.7886 21.9029 24.5269C22.5007 24.2956 23.0436 23.9424 23.4969 23.49C23.9502 23.0375 24.3041 22.4958 24.5359 21.8992C24.7989 21.2006 24.9399 20.4641 24.9549 19.7176C24.9979 18.7575 25.0109 18.4531 25.0109 16.015C25.0109 13.5768 25.0109 13.2675 24.9549 12.3124C24.9433 11.5562 24.8009 10.8076 24.5339 10.0998ZM23.3159 19.6128C23.3095 20.1879 23.2043 20.7577 23.0049 21.2974C22.8548 21.6855 22.6249 22.0379 22.33 22.332C22.0352 22.6261 21.6819 22.8553 21.2929 23.005C20.7582 23.203 20.1933 23.308 19.6229 23.3154C18.6729 23.3593 18.4049 23.3703 15.9689 23.3703C13.5309 23.3703 13.2819 23.3703 12.3139 23.3154C11.7439 23.3084 11.1793 23.2034 10.6449 23.005C10.2546 22.8563 9.89993 22.6274 9.60382 22.3333C9.30771 22.0391 9.07676 21.6862 8.92593 21.2974C8.72938 20.7635 8.62424 20.2004 8.61493 19.6317C8.57193 18.6836 8.56193 18.4162 8.56193 15.985C8.56193 13.5529 8.56193 13.3044 8.61493 12.3373C8.62139 11.7625 8.72658 11.193 8.92593 10.6537C9.23093 9.86627 9.85593 9.24651 10.6449 8.94511C11.1795 8.74764 11.744 8.64268 12.3139 8.63473C13.2649 8.59182 13.5319 8.57984 15.9689 8.57984C18.4059 8.57984 18.6559 8.57984 19.6229 8.63473C20.1933 8.64158 20.7583 8.74658 21.2929 8.94511C21.6819 9.09508 22.0351 9.32455 22.3299 9.61879C22.6247 9.91303 22.8547 10.2655 23.0049 10.6537C23.2015 11.1876 23.3066 11.7507 23.3159 12.3194C23.3589 13.2685 23.3699 13.5349 23.3699 15.9671C23.3699 18.3982 23.3699 18.6597 23.3269 19.6138H23.3159V19.6128Z" fill="white" fill-opacity="0.52"/>
</svg>
