<svg width="32" height="32" viewBox="0 0 32 32" fill="none" xmlns="http://www.w3.org/2000/svg">
<circle cx="16" cy="16" r="16" fill="white" fill-opacity="0.22"/>
<path fill-rule="evenodd" clip-rule="evenodd" d="M13.6832 13.2721H17.0258V14.9371C17.5073 13.9795 18.7421 13.1191 20.597 13.1191C24.1529 13.1191 24.9971 15.0253 24.9971 18.5227V25H21.3971V19.3192C21.3971 17.3275 20.9156 16.2043 19.6898 16.2043C17.9897 16.2043 17.2832 17.4148 17.2832 19.3183V25H13.6832V13.2721ZM7.51007 24.847H11.1101V13.1191H7.51007V24.847ZM11.6258 9.295C11.6259 9.59675 11.5661 9.89551 11.4497 10.1739C11.3334 10.4523 11.1629 10.7049 10.9481 10.9168C10.5128 11.3494 9.9237 11.5915 9.31007 11.59C8.69752 11.5896 8.10975 11.3481 7.67387 10.9177C7.45986 10.705 7.28992 10.4522 7.17378 10.1738C7.05764 9.89534 6.99759 9.5967 6.99707 9.295C6.99707 8.6857 7.24007 8.1025 7.67477 7.6723C8.11027 7.24134 8.69829 6.99973 9.31097 7C9.92477 7 10.5134 7.2421 10.9481 7.6723C11.3819 8.1025 11.6258 8.6857 11.6258 9.295Z" fill="white" fill-opacity="0.52"/>
</svg>
