<svg width="32" height="32" viewBox="0 0 32 32" fill="none" xmlns="http://www.w3.org/2000/svg">
<circle cx="16" cy="16" r="16" fill="white" fill-opacity="0.22"/>
<path d="M22.8797 10.8053C23.6511 10.3442 24.2283 9.61805 24.5035 8.76251C23.7787 9.1926 22.9856 9.49557 22.1586 9.65829C21.6009 9.06829 20.8645 8.67811 20.0632 8.5479C19.2618 8.41769 18.4398 8.55468 17.7239 8.93775C17.0081 9.32083 16.4381 9.92871 16.1018 10.6677C15.7656 11.4067 15.6817 12.2358 15.8632 13.0272C14.3951 12.9535 12.9588 12.5718 11.6478 11.9071C10.3367 11.2424 9.18003 10.3094 8.25289 9.16866C7.78139 9.98193 7.63711 10.9442 7.84936 11.86C8.0616 12.7757 8.61446 13.5764 9.39564 14.0993C8.80939 14.0805 8.23614 13.9218 7.72368 13.6364V13.6829C7.72385 14.5356 8.01895 15.362 8.55894 16.022C9.09893 16.682 9.85057 17.1349 10.6864 17.3039C10.1426 17.4518 9.57222 17.4736 9.01874 17.3675C9.25515 18.101 9.71463 18.7423 10.3331 19.202C10.9515 19.6617 11.6981 19.9168 12.4685 19.9318C11.1604 20.9585 9.54492 21.5153 7.88202 21.5126C7.58686 21.5126 7.29257 21.4954 7 21.4618C8.68866 22.5469 10.654 23.1228 12.6612 23.1209C14.0437 23.1304 15.4143 22.865 16.6934 22.3403C17.9725 21.8156 19.1346 21.042 20.1121 20.0644C21.0897 19.0867 21.8632 17.9246 22.3878 16.6455C22.9124 15.3664 23.1776 13.9957 23.168 12.6133C23.168 12.4532 23.1645 12.294 23.1568 12.1357C23.88 11.613 24.5042 10.9655 25 10.2236C24.3262 10.5223 23.6116 10.7184 22.8797 10.8053Z" fill="white" fill-opacity="0.52"/>
</svg>
