<svg width="153" height="32" viewBox="0 0 153 32" fill="none" xmlns="http://www.w3.org/2000/svg">
<path d="M96.9189 19.1259C96.9189 18.9657 96.9189 18.8054 96.9189 18.6451C96.9189 15.3752 96.9189 12.1018 96.9189 8.83185C96.9189 8.21468 97.0042 8.12944 97.635 8.12944C98.7159 8.12944 99.7968 8.13626 100.874 8.12603C101.3 8.12262 101.478 8.2931 101.478 8.72273C101.471 14.6421 101.471 20.558 101.481 26.4774C101.481 26.9206 101.297 27.0707 100.881 27.0672C99.2239 27.057 97.5634 27.057 95.9062 27.0638C95.4902 27.0672 95.2822 26.8763 95.1527 26.491C94.0138 23.0983 92.8613 19.709 91.7122 16.3197C91.6781 16.2208 91.6406 16.1219 91.5417 16.0196C91.5349 16.1696 91.5213 16.3197 91.5213 16.4731C91.5213 19.7738 91.5213 23.0744 91.5213 26.3785C91.5213 27.0093 91.4735 27.0604 90.853 27.0638C89.7721 27.0672 88.6912 27.0707 87.6137 27.0672C87.0545 27.0638 86.9727 26.9786 86.9727 26.4364C86.9727 20.5648 86.9727 14.6932 86.9727 8.81821C86.9727 8.23514 87.0715 8.13626 87.6648 8.13626C89.2606 8.13285 90.8598 8.1499 92.4555 8.12944C92.9465 8.12262 93.2023 8.31356 93.3557 8.77388C94.4707 12.1257 95.6028 15.4741 96.7314 18.8224C96.7689 18.9316 96.8064 19.0407 96.8473 19.1498C96.8678 19.1361 96.895 19.1293 96.9189 19.1259Z" fill="white"/>
<path d="M106.337 15.8286C106.337 13.5304 106.337 11.2357 106.337 8.9375C106.337 8.2044 106.415 8.12598 107.142 8.12598C110.429 8.12598 113.712 8.12598 116.999 8.12598C117.63 8.12598 117.715 8.21122 117.715 8.8318C117.719 9.6365 117.719 10.4446 117.715 11.2493C117.715 11.8187 117.603 11.9313 117.016 11.9313C115.219 11.9381 113.426 11.9381 111.629 11.9381C110.889 11.9381 110.889 11.9347 110.889 12.6985C110.889 13.5339 110.899 14.3727 110.882 15.208C110.875 15.5797 111.008 15.7161 111.387 15.7127C112.938 15.6991 114.49 15.7059 116.041 15.7093C116.6 15.7093 116.706 15.815 116.709 16.3742C116.713 17.2096 116.709 18.0484 116.706 18.8838C116.703 19.3918 116.6 19.5009 116.092 19.5043C114.571 19.5112 113.051 19.5078 111.53 19.5043C110.92 19.5043 110.889 19.5316 110.889 20.142C110.889 20.6603 110.879 21.1751 110.892 21.6934C110.916 22.73 111.445 23.2687 112.485 23.2789C114.08 23.296 115.68 23.2858 117.275 23.2858C117.985 23.2858 118.022 23.3233 118.022 24.0325C118.022 24.8679 118.012 25.7067 118.022 26.5421C118.026 26.9069 117.862 27.0706 117.5 27.0672C115.066 27.057 112.631 27.1013 110.2 27.0263C108.069 26.9615 106.361 25.0282 106.344 22.7675C106.327 20.4523 106.34 18.1404 106.337 15.8286C106.34 15.8286 106.337 15.8286 106.337 15.8286Z" fill="white"/>
<path d="M144.498 27.0568C143.25 27.0568 142.002 27.0602 140.758 27.0568C140.216 27.0568 140.158 26.9988 140.154 26.4533C140.151 25.6179 140.151 24.7791 140.154 23.9437C140.158 23.3333 140.205 23.2856 140.802 23.2856C142.674 23.2856 144.546 23.2856 146.415 23.2856C147.308 23.2856 147.577 23.0094 147.577 22.1092C147.577 21.6217 147.584 21.1341 147.574 20.6499C147.56 20.0293 147.291 19.6985 146.687 19.5519C145.303 19.2144 143.919 18.8734 142.531 18.5495C140.956 18.1812 140.038 17.1753 139.963 15.5625C139.909 14.3657 139.912 13.1586 139.994 11.9618C140.13 9.90572 141.921 8.19402 143.97 8.15651C146.312 8.11559 148.655 8.14628 150.997 8.13946C151.407 8.13946 151.577 8.33041 151.577 8.71912C151.574 9.57156 151.58 10.424 151.577 11.2764C151.574 11.8288 151.458 11.9482 150.909 11.9516C149.173 11.955 147.441 11.9516 145.705 11.9516C144.754 11.9516 144.492 12.2175 144.485 13.1689C144.485 13.4723 144.471 13.7792 144.492 14.0827C144.536 14.7135 144.795 15.0204 145.402 15.1704C146.786 15.5114 148.167 15.8557 149.555 16.1763C151.188 16.5547 152.129 17.7141 152.133 19.4019C152.136 20.5578 152.14 21.7137 152.129 22.8696C152.116 25.1576 150.298 27.0159 148.007 27.067C146.841 27.0773 145.671 27.0568 144.498 27.0568Z" fill="white"/>
<path d="M127.461 27.0602C126.213 27.0602 124.968 27.0636 123.72 27.0602C123.175 27.0568 123.103 26.9852 123.1 26.4635C123.096 25.5974 123.11 24.7313 123.093 23.8618C123.083 23.4288 123.256 23.2719 123.689 23.2753C125.561 23.289 127.43 23.2822 129.302 23.2788C130.267 23.2788 130.516 23.0298 130.516 22.0683C130.516 21.5977 130.523 21.1238 130.512 20.6532C130.502 20.0224 130.253 19.6917 129.65 19.5417C128.252 19.1973 126.85 18.8563 125.446 18.5324C123.891 18.1743 122.939 17.0559 122.909 15.467C122.888 14.3588 122.885 13.2472 122.922 12.1357C122.994 9.96705 124.822 8.16329 126.994 8.1326C129.305 8.10191 131.617 8.12919 133.929 8.12237C134.362 8.12237 134.526 8.31673 134.522 8.73272C134.512 9.56811 134.519 10.4069 134.519 11.2423C134.519 11.8151 134.403 11.9311 133.823 11.9345C132.091 11.9379 130.356 11.9345 128.623 11.9345C127.71 11.9345 127.457 12.1834 127.44 13.0904C127.433 13.4382 127.423 13.7928 127.454 14.1372C127.508 14.7271 127.757 15.0033 128.334 15.1465C129.807 15.5113 131.28 15.8625 132.753 16.2342C134.144 16.5854 135.061 17.7515 135.071 19.1836C135.081 20.4316 135.081 21.6762 135.068 22.9241C135.044 25.0655 133.332 26.9101 131.198 27.0193C129.953 27.084 128.705 27.0295 127.457 27.0295C127.461 27.0465 127.461 27.0534 127.461 27.0602Z" fill="white"/>
<path d="M43.5156 17.6222C43.5156 14.7 43.5156 11.7812 43.5156 8.85907C43.5156 8.21122 43.5975 8.12939 44.2521 8.12598C48.1154 8.12598 51.9786 8.12598 55.8419 8.12598C56.5239 8.12598 56.5716 8.17371 56.5716 8.84544C56.5716 9.6365 56.5716 10.4276 56.5716 11.2186C56.5716 11.8528 56.4966 11.9313 55.8726 11.9313C53.5164 11.9313 51.1569 11.9313 48.8007 11.9279C48.0745 11.9279 48.0745 11.9244 48.0745 12.6507C48.0745 13.5032 48.0881 14.3556 48.0677 15.2046C48.0574 15.5865 48.1972 15.7059 48.5723 15.7025C50.3829 15.6888 52.1935 15.6956 54.004 15.6956C54.6212 15.6956 54.686 15.7604 54.686 16.3742C54.686 17.1789 54.6894 17.987 54.686 18.7917C54.6826 19.4225 54.6178 19.4873 53.9734 19.4873C52.2548 19.4873 50.5363 19.4873 48.8178 19.4873C48.0779 19.4873 48.0779 19.4873 48.0779 20.2033C48.0779 22.256 48.0779 24.3087 48.0779 26.3648C48.0779 26.9785 48.0097 27.0501 47.3993 27.0501C46.3355 27.0536 45.2682 27.0536 44.2044 27.0467C43.577 27.0433 43.5224 26.9888 43.5224 26.3716C43.5156 23.4631 43.5156 20.5443 43.5156 17.6222Z" fill="white"/>
<path d="M78.5541 19.4941C78.5541 21.8059 78.5541 24.1177 78.5541 26.4296C78.5541 26.9751 78.4655 27.0638 77.9165 27.0638C76.8356 27.0672 75.7581 27.0672 74.6772 27.0638C74.0771 27.0604 74.0089 26.9854 74.0089 26.3682C74.0089 21.7752 74.0089 17.1823 74.0089 12.5859C74.0089 11.9381 74.0089 11.9381 73.344 11.9347C72.4473 11.9347 71.5505 11.9381 70.6503 11.9347C70.0911 11.9313 69.9922 11.829 69.9888 11.2664C69.9854 10.4139 69.9956 9.56149 69.9854 8.71246C69.982 8.31351 70.1457 8.12598 70.5548 8.12598C74.3738 8.12939 78.1893 8.12939 82.0082 8.12598C82.3765 8.12598 82.5367 8.28965 82.5367 8.64767C82.5367 9.54444 82.5265 10.4412 82.5401 11.3414C82.547 11.771 82.3628 11.9449 81.94 11.9381C81.0126 11.9279 80.0851 11.9347 79.1577 11.9381C78.5609 11.9381 78.5609 11.9415 78.5609 12.5553C78.5609 14.8671 78.5609 17.1789 78.5609 19.4907C78.5575 19.4941 78.5541 19.4941 78.5541 19.4941Z" fill="white"/>
<path d="M61.0244 17.6223C61.0244 14.7001 61.0244 11.7814 61.0244 8.8592C61.0244 8.18066 61.0756 8.12951 61.7507 8.12951C62.8145 8.1261 63.8818 8.1261 64.9456 8.12951C65.4435 8.12951 65.5662 8.24544 65.573 8.74327C65.5799 9.50364 65.5764 10.264 65.5764 11.0244C65.5764 16.0913 65.5764 21.1548 65.5764 26.2217C65.5764 27.0059 65.5253 27.0605 64.7649 27.0639C63.7318 27.0673 62.6952 27.0673 61.662 27.0605C61.1028 27.0571 61.0312 26.9889 61.0312 26.4263C61.0244 23.4939 61.0244 20.5581 61.0244 17.6223Z" fill="white"/>
<path d="M12.279 13.2766C12.2729 13.2764 12.2673 13.2795 12.2657 13.2854C12.2159 13.4628 12.1752 13.6463 12.105 13.8168C12.0539 13.9429 11.9823 14.0725 11.88 14.1612C11.1639 14.7817 10.3047 14.9488 9.39086 14.9045C9.09421 14.8908 8.80097 14.8158 8.50773 14.8227C8.05764 14.8363 7.60755 14.8806 7.16429 14.9488C6.36299 15.0716 5.56852 15.2557 4.75018 15.2011C4.17052 15.1602 3.74771 14.9352 3.4306 14.3862C2.74524 13.1962 2.59862 11.9278 2.77593 10.6116C2.93959 9.40796 3.17828 8.21113 3.37604 7.01089C3.4306 6.68356 3.46129 6.35963 3.45788 6.02206C3.45447 4.55587 4.04436 3.42383 5.5958 2.8885C5.76628 2.83053 5.98792 2.81348 6.15841 2.86463C6.8199 3.0658 7.33136 3.45793 7.63483 4.10237C7.74735 4.34446 7.75418 4.55928 7.60074 4.79114C7.32114 5.21054 6.97675 5.52424 6.46529 5.62653C6.4005 5.64017 6.34253 5.68791 6.28798 5.72542C6.25047 5.74928 6.21978 5.78679 6.1891 5.81748C6.00207 6.01755 5.80534 6.19265 5.57502 6.25876C5.39225 6.31121 5.27081 6.48076 5.25141 6.66992C5.17299 7.44052 5.40826 8.13271 5.77992 8.78738C6.06634 9.29202 6.39709 9.76939 6.68692 10.2706C6.85658 10.5621 7.27257 10.6117 7.50677 10.369C7.8019 10.0632 8.14894 9.81619 8.53842 9.61936C9.30724 9.23158 10.0794 9.13725 10.8384 9.64637C10.8522 9.6556 10.8712 9.65182 10.8804 9.63803C10.8886 9.62569 10.8854 9.60924 10.8733 9.60065C10.8286 9.56882 10.7823 9.53779 10.7411 9.49661C10.69 9.44887 10.6457 9.39091 10.6047 9.33294C10.4718 9.14199 10.4854 9.05675 10.6627 8.91013C11.8663 7.91448 13.22 7.63829 14.7203 8.05087C15.1363 8.16339 15.5489 8.28273 15.9649 8.39185C16.0706 8.41913 16.1831 8.42595 16.2888 8.42595C16.5923 8.42935 16.7628 8.3066 16.8719 8.01677C17.0151 7.63829 16.9912 7.24276 16.9708 6.85064C16.9503 6.46192 16.8582 6.09026 16.6707 5.74246C16.6264 5.66063 16.5923 5.62653 16.4866 5.61971C16.3434 5.60948 16.1899 5.57539 16.0706 5.50378C15.7194 5.29238 15.5114 4.77068 15.6 4.37174C15.6977 3.92685 16.098 3.51906 16.1313 3.06479C16.1408 2.93519 16.1545 2.80688 16.1763 2.6805C16.2411 2.2952 16.3434 1.90989 16.49 1.55187C16.773 0.856278 17.3049 0.40619 18.021 0.177736C18.7609 -0.0609471 19.5042 -0.0575374 20.2441 0.177736C21.2568 0.501663 21.7956 1.2484 22.007 2.24746C22.0389 2.40208 22.0634 2.55856 22.0837 2.71692C22.1727 3.41139 22.7985 4.07791 22.6582 4.76386C22.5457 5.30261 22.2013 5.62994 21.7512 5.63676C21.7069 5.63676 21.6421 5.65381 21.6285 5.6845C21.3011 6.31871 21.1613 6.99726 21.2841 7.70308C21.3762 8.22477 21.6353 8.38162 22.1604 8.28273C22.7026 8.18044 23.2413 8.04064 23.7869 7.94858C25.1337 7.72353 26.3237 8.08838 27.3739 8.94764C27.5001 9.04993 27.5103 9.16245 27.4251 9.2852C27.3753 9.3561 27.32 9.4227 27.2595 9.49406C27.2276 9.53158 27.2701 9.58294 27.3126 9.55799C27.957 9.18973 28.6117 9.25111 29.2629 9.53412C29.8963 9.80896 30.4223 10.2147 30.8295 10.7902C30.8984 10.8875 31.0353 10.862 31.094 10.7582C31.319 10.332 31.5304 9.89555 31.7896 9.4932C32.2056 8.85217 32.6079 8.20772 32.717 7.43371C32.7511 7.20184 32.7409 6.96316 32.7443 6.72788C32.7443 6.57016 32.72 6.40636 32.8808 6.31107C32.8943 6.30306 32.9006 6.27453 32.8853 6.27111C32.8839 6.2708 32.8834 6.27113 32.882 6.27141C32.4364 6.36242 32.1131 6.16477 31.8339 5.84476C31.718 5.71178 31.5748 5.64017 31.3974 5.59243C30.8723 5.44922 30.5245 5.08097 30.3097 4.59679C30.262 4.49108 30.2893 4.324 30.3336 4.20807C30.62 3.49543 31.1656 3.06239 31.8953 2.86122C32.0419 2.8203 32.2226 2.83053 32.3658 2.88168C33.5797 3.29767 34.4424 4.0785 34.5071 5.58221C34.5617 6.84723 34.8481 8.05769 35.0493 9.29202C35.2096 10.2809 35.3562 11.2663 35.2607 12.2722C35.1959 12.9473 35.0186 13.5883 34.681 14.1782C34.6128 14.2941 34.5515 14.4135 34.4867 14.5362C34.2378 15.0068 33.8047 15.1602 33.3171 15.2045C32.5499 15.2727 31.8032 15.1193 31.0531 14.9931C30.6541 14.9249 30.2518 14.8397 29.8494 14.8261C29.4334 14.8124 29.0174 14.8909 28.598 14.9113C27.7388 14.9522 26.9307 14.7988 26.2248 14.2635C26.0373 14.1202 25.9043 13.9566 25.8566 13.7213C25.8349 13.6153 25.6825 13.6249 25.6657 13.7318C25.6335 13.9362 25.5974 14.1391 25.5361 14.3351C25.2428 15.2932 24.9394 16.2479 24.6052 17.1924C24.479 17.5471 24.2915 17.888 24.0801 18.1983C23.4834 19.078 23.2754 20.0532 23.3027 21.0966C23.3141 21.6181 22.8798 22.0411 22.3581 22.0411C21.4378 22.0411 20.5218 22.0411 19.6031 22.0411C19.4713 22.0411 19.3644 21.9381 19.3644 21.8063C19.3644 21.6744 19.4713 21.5637 19.6031 21.5634C19.902 21.5626 20.1958 21.5611 20.4896 21.5637C20.7863 21.5672 21.0829 21.5774 21.3796 21.5808C21.5833 21.5833 21.6404 21.5839 21.6729 21.4658C21.7017 21.3613 21.6141 21.2535 21.5057 21.2535C20.9909 21.2466 20.4726 21.2466 19.9577 21.2364C19.5247 21.2262 19.4019 21.1034 19.3746 20.667C19.3678 20.5715 19.3746 20.4726 19.3849 20.3772C19.4224 20.0839 19.5315 19.9918 19.8247 19.9918C20.4453 19.9953 21.0625 19.9987 21.683 19.9953C21.7855 19.9953 21.8217 19.8187 21.7354 19.7636C21.7207 19.7542 21.7057 19.7471 21.6899 19.7429C21.5705 19.7122 21.4341 19.7327 21.3046 19.7327C20.8204 19.7327 20.3362 19.7361 19.852 19.7293C19.4292 19.7225 19.303 19.5861 19.3098 19.1667C19.3098 19.0508 19.3064 18.9348 19.3098 18.8189C19.3133 18.5427 19.4019 18.4438 19.6815 18.437C20.3771 18.4234 21.0761 18.42 21.7717 18.4131C22.0663 18.4095 21.8661 18.0917 21.5719 18.1072C21.4313 18.1146 21.2912 18.1199 21.1511 18.1199C20.7454 18.1165 20.3396 18.1028 19.9372 18.0585C19.5724 18.0176 19.4156 17.8198 19.4292 17.455C19.436 17.2504 19.4735 17.0458 19.4974 16.8412C19.5144 16.7083 19.5929 16.6332 19.7224 16.6128C19.8895 16.5889 20.0532 16.5548 20.2203 16.5514C20.7351 16.548 21.2534 16.5378 21.7683 16.565C21.9844 16.5774 22.1949 16.654 22.4277 16.7165C22.4728 16.7286 22.5083 16.7279 22.537 16.6911C22.5745 16.6429 22.5836 16.5589 22.5407 16.5156C22.4213 16.3951 22.2942 16.2985 22.099 16.2957C21.6933 16.2889 21.2875 16.265 20.8817 16.2411C20.4453 16.2172 20.0361 16.0945 19.644 15.8933C19.5519 15.8456 19.4428 15.8251 19.3371 15.8183C18.9655 15.7842 18.6279 15.8626 18.2869 16.0365C17.8505 16.2582 17.3526 16.2548 16.8685 16.2752C16.6673 16.2854 16.4695 16.2923 16.2683 16.2889C16.1662 16.2875 16.0736 16.3028 15.9893 16.3345C15.7495 16.4247 15.7499 16.7921 15.9853 16.6912C16.1592 16.6162 16.3536 16.5719 16.5411 16.5616C17.0049 16.5412 17.4686 16.5446 17.9357 16.548C18.0892 16.548 18.2426 16.5719 18.396 16.5855C18.7063 16.6162 18.7609 16.6707 18.7984 16.9708C18.8188 17.1481 18.8393 17.3288 18.8427 17.5095C18.8427 17.7823 18.7268 17.9767 18.4608 18.0142C18.0039 18.0756 17.5402 18.096 17.0799 18.1097C16.9479 18.1124 16.8154 18.1084 16.6823 18.1015C16.3947 18.0867 16.1952 18.4026 16.4832 18.4063C17.1719 18.4165 17.8641 18.42 18.5529 18.4336C18.8802 18.4404 18.9586 18.5325 18.9586 18.8598C18.9586 18.9826 18.9586 19.1053 18.9586 19.2281C18.9621 19.5622 18.8257 19.7122 18.4847 19.7259C18.0516 19.7395 17.622 19.7395 17.189 19.7395C17.0151 19.7395 16.8412 19.7259 16.6673 19.7327C16.5889 19.7361 16.5036 19.7668 16.432 19.8043C16.3979 19.8248 16.3638 19.893 16.3706 19.9305C16.3775 19.9612 16.4457 19.9953 16.49 19.9953C16.7559 20.0021 17.0185 19.9987 17.2845 19.9987C17.6732 19.9987 18.0585 19.9953 18.4472 19.9918C18.7302 19.9884 18.8427 20.0805 18.8802 20.3635C18.8973 20.4829 18.8973 20.609 18.887 20.7284C18.8598 21.0864 18.72 21.2228 18.3653 21.2296C17.8437 21.2432 17.322 21.2432 16.7969 21.2466C16.6745 21.2466 16.5643 21.3515 16.5929 21.4705C16.6186 21.5771 16.6811 21.5763 16.8753 21.574C17.4754 21.5637 18.0755 21.5535 18.6756 21.5433C18.7999 21.5433 18.9007 21.644 18.9007 21.7683C18.9007 21.7746 18.9007 21.7808 18.9007 21.7871C18.9007 21.9217 18.7915 22.0309 18.6569 22.0309C17.7592 22.0309 16.8588 22.0309 15.9445 22.0309C15.4059 22.0309 14.958 21.5942 14.9692 21.0557C15.0033 19.9816 14.7476 18.9962 14.1338 18.096C13.6565 17.397 13.4144 16.5923 13.1893 15.7842C13.1518 15.6444 13.0836 15.508 12.9984 15.3921C12.5585 14.7851 12.3198 14.1134 12.3062 13.3599C12.3062 13.3366 12.3042 13.3132 12.3018 13.2899C12.3009 13.281 12.2879 13.277 12.279 13.2766ZM14.2394 13.6485C14.2292 13.6411 14.2142 13.6411 14.2033 13.6475C14.1875 13.6568 14.1831 13.6768 14.1923 13.6926C14.2782 13.8408 14.3399 14.0175 14.4646 14.1134C15.1397 14.6215 15.9103 14.7613 16.7355 14.6044C17.3629 14.4851 17.9357 14.2225 18.5017 13.9429C18.928 13.7315 19.3235 13.7281 19.7565 13.9361C20.2203 14.1578 20.6976 14.3555 21.1852 14.5124C22.0854 14.8022 22.9481 14.6965 23.7528 14.168C23.9064 14.0681 23.6928 13.89 23.5272 13.9684C23.079 14.1808 22.5916 14.2615 22.082 14.2566C21.2193 14.2464 20.4214 13.9941 19.6781 13.5645C19.4906 13.4553 19.3576 13.3155 19.3508 13.0973C19.3269 12.371 19.3098 11.6413 19.2894 10.9151C19.2894 10.9095 19.2894 10.9039 19.2895 10.8983C19.291 10.8017 19.2183 10.7207 19.1217 10.7207C19.0932 10.7207 19.0654 10.7207 19.0375 10.7207C19.0038 10.7207 18.9723 10.745 18.9723 10.7787C18.9689 11.4606 18.9757 12.146 18.9552 12.8279C18.9484 13.0871 18.9416 13.3803 18.6552 13.5167C18.2562 13.7077 17.8607 13.9259 17.4379 14.052C16.3258 14.3809 15.2306 14.376 14.2394 13.6485Z" fill="white"/>
<path d="M29.0653 24.3935C29.1717 24.3935 29.2628 24.47 29.2708 24.576C29.2926 24.8617 29.2795 25.2579 29.2415 25.6487C29.1784 26.2975 28.6081 26.7258 27.9563 26.7258C21.9509 26.7258 15.9385 26.7258 9.89684 26.7258C9.3863 26.7258 8.91945 26.3613 8.8727 25.8529C8.83178 25.4301 8.82156 25.0039 8.79769 24.5777C8.79087 24.4447 8.82497 24.3901 8.9784 24.3901C15.6752 24.3935 22.3685 24.3935 29.0653 24.3935Z" fill="white"/>
<path d="M27.3676 27.4971C27.3597 27.4183 27.4317 27.3538 27.5108 27.3537C27.8145 27.3532 28.1093 27.3518 28.4041 27.3607C28.4485 27.3607 28.503 27.4254 28.5269 27.4732C28.6053 27.6198 28.6565 27.7835 28.7451 27.9233C28.9361 28.2165 29.1679 28.2233 29.3384 27.913C29.4782 27.6573 29.5941 27.3743 29.6521 27.0913C29.9931 25.4989 29.9931 23.9066 29.6078 22.321C29.5566 22.1062 29.4646 21.8914 29.3521 21.7005C29.1645 21.3731 28.9088 21.3765 28.7247 21.7073C28.6087 21.9119 28.5269 22.1403 28.4621 22.3688C28.4246 22.5018 28.3666 22.5393 28.2371 22.5359C27.9609 22.5256 27.6813 22.5324 27.4051 22.5324C27.3562 22.5324 27.3277 22.4766 27.3336 22.428C27.3567 22.2371 27.3783 22.0442 27.4051 21.8539C27.5517 20.831 27.7529 19.8217 28.1927 18.8806C28.3462 18.5533 28.5473 18.2327 28.7826 17.96C29.202 17.4758 29.7271 17.4894 30.1704 17.9531C30.5045 18.3043 30.7125 18.734 30.8864 19.1807C31.2683 20.1661 31.49 21.1924 31.5786 22.2392C31.6639 23.228 31.7321 24.2203 31.7252 25.2091C31.715 26.8697 31.5309 28.5132 30.999 30.0987C30.8182 30.6374 30.5966 31.1591 30.2113 31.5922C29.7544 32.1105 29.2225 32.1207 28.7485 31.6195C28.428 31.2819 28.2302 30.8693 28.0632 30.4397C27.6915 29.4918 27.5006 28.5029 27.3676 27.4971Z" fill="white"/>
<path d="M10.6689 22.389C10.6827 22.4651 10.6096 22.5288 10.5323 22.5289C10.2396 22.5295 9.95132 22.5308 9.66303 22.522C9.62552 22.522 9.57778 22.4435 9.55392 22.3924C9.45844 22.1605 9.39366 21.915 9.27091 21.6968C9.08678 21.3661 8.83787 21.3729 8.6401 21.6968C8.40142 22.0889 8.30935 22.5356 8.24116 22.9789C8.04339 24.3155 8.03657 25.6521 8.31617 26.9785C8.38096 27.282 8.49007 27.5855 8.62987 27.8651C8.814 28.2265 9.06291 28.2231 9.27772 27.8787C9.3391 27.7798 9.40389 27.6775 9.42434 27.5684C9.46185 27.3706 9.58119 27.34 9.75509 27.3468C10.2255 27.3692 10.5932 27.7722 10.5144 28.2365C10.5018 28.3107 10.4886 28.3846 10.4745 28.4584C10.3143 29.3074 10.1131 30.1462 9.70735 30.9168C9.55732 31.1964 9.36979 31.4692 9.15156 31.6976C8.77649 32.0898 8.29571 32.1034 7.92405 31.7147C7.6615 31.4385 7.43986 31.1112 7.27279 30.7702C6.84316 29.8973 6.64539 28.9494 6.49536 27.9912C6.30782 26.791 6.23281 25.5805 6.2635 24.3667C6.30782 22.6754 6.47149 20.9978 7.0341 19.385C7.19436 18.9213 7.39554 18.4746 7.70583 18.0859C7.75015 18.0313 7.79448 17.9768 7.84563 17.9256C8.28889 17.4823 8.7799 17.4858 9.21635 17.9358C9.64939 18.3825 9.87443 18.9451 10.0722 19.5214C10.3893 20.4522 10.553 21.4172 10.6689 22.389Z" fill="white"/>
<path d="M32.356 21.886C32.3057 21.5258 32.5814 21.1985 32.9451 21.1985C33.3202 21.1985 33.6919 21.2019 34.0669 21.1951C34.1897 21.1917 34.2443 21.2156 34.2681 21.3554C34.4932 22.6613 34.5579 23.9809 34.5307 25.3039C34.5068 26.5621 34.3806 27.8101 34.101 29.041C34.0748 29.159 33.9665 29.2387 33.8456 29.2387C33.6654 29.2387 33.4852 29.2387 33.3049 29.2387C32.6682 29.2387 32.1988 28.645 32.3035 28.017C32.6419 25.9861 32.6433 23.9454 32.356 21.886Z" fill="white"/>
<path d="M5.70478 28.0403C5.80884 28.658 5.35791 29.2424 4.73148 29.2424C4.27648 29.2424 3.86903 28.927 3.78761 28.4794C3.39986 26.3474 3.37559 24.204 3.63928 22.0458C3.69776 21.5671 4.11199 21.2158 4.59426 21.2158C5.20059 21.2158 5.65752 21.7618 5.58592 22.3639C5.36025 24.2613 5.3866 26.1515 5.70478 28.0403Z" fill="white"/>
<path d="M28.8363 23.1426C29.1898 23.1426 28.8872 23.5177 28.5336 23.5177C22.0961 23.5177 15.655 23.5177 9.19556 23.5177C9.03667 23.5177 8.87838 23.3642 8.94713 23.221C8.96759 23.1767 9.06648 23.146 9.13126 23.146C10.1303 23.1426 11.1328 23.146 12.1319 23.1426C17.7 23.1426 23.2681 23.1426 28.8363 23.1426Z" fill="white"/>
<path d="M35.2169 24.0957C35.2046 23.6577 35.5513 23.2891 35.9894 23.2891C36.0527 23.2891 36.1158 23.2891 36.179 23.2891C36.4628 23.2891 36.7173 23.5031 36.7233 23.7869C36.7778 25.2326 36.7335 26.675 36.4198 28.0934C36.3482 28.4242 36.4096 28.3628 36.0788 28.3662C35.4842 28.3716 35.0329 27.8325 35.0975 27.2414C35.2118 26.1945 35.2465 25.1486 35.2169 24.0957Z" fill="white"/>
<path d="M1.31307 23.4016C1.30569 23.3352 1.37319 23.2856 1.43997 23.2856C1.62885 23.2856 1.81495 23.2856 2.00117 23.2856C2.44586 23.2856 2.79794 23.6594 2.78587 24.1039C2.75921 25.0857 2.7865 26.0649 2.88497 27.045C2.95469 27.7389 2.42622 28.3757 1.72906 28.3594C1.68814 28.3594 1.62335 28.2741 1.61653 28.223C1.51083 27.5751 1.3608 26.9307 1.3267 26.2794C1.27556 25.3213 1.31307 24.3597 1.31307 23.4016Z" fill="white"/>
<path d="M8.95793 24.244C8.8857 24.244 8.82715 24.1893 8.82715 24.1171C8.82715 24.0472 8.88209 23.9848 8.95189 23.9809C8.98112 23.9792 9.00984 23.978 9.03855 23.978C15.708 23.978 22.3775 23.978 29.047 23.9712C29.2907 23.9712 29.0671 24.244 28.8234 24.244C22.2114 24.244 15.5927 24.244 8.95793 24.244Z" fill="white"/>
<path d="M30.9918 31.9942C30.9255 31.9891 30.89 31.9081 30.9288 31.854C31.2576 31.3968 31.4936 30.9141 31.684 30.4086C31.7726 30.1733 31.8408 29.9347 31.9295 29.6994C31.95 29.6482 32.0147 29.5766 32.0591 29.5732C32.6609 29.5666 33.2628 29.5664 33.8677 29.5664C33.9069 29.5664 33.9558 29.5927 33.9481 29.6312C33.7639 30.2893 33.5321 30.9303 33.1127 31.4827C32.8501 31.8271 32.5262 32.0248 32.0727 31.9976C31.7147 31.9771 31.3498 31.9942 30.9918 31.9942Z" fill="white"/>
<path d="M6.98314 31.719C7.0593 31.8328 6.98021 31.9908 6.84332 31.9908C6.53986 31.9908 6.23639 31.9738 5.93633 31.9942C5.48283 32.0249 5.13163 31.8408 4.90317 31.4759C4.65426 31.0804 4.45649 30.6542 4.25532 30.2348C4.20266 30.1238 4.16453 30.0067 4.12719 29.8827C4.08026 29.7269 4.19831 29.5665 4.36102 29.5665C4.86907 29.5665 5.37713 29.5665 5.88859 29.5665C5.97384 29.5665 6.04544 29.5597 6.07954 29.6756C6.28849 30.386 6.55233 31.0756 6.98314 31.719Z" fill="white"/>
<path d="M33.0489 18.0427C33.667 18.7406 32.9221 19.7194 31.9899 19.7297C31.8603 19.7297 31.8467 19.6478 31.8194 19.566C31.6353 19.0068 31.4068 18.468 31.0897 17.9736C30.9875 17.8157 31.0944 17.607 31.2825 17.6035C31.6637 17.5965 32.0349 17.5888 32.4025 17.6258C32.6071 17.6463 32.8287 17.8134 32.9822 17.9702C33.005 17.994 33.0272 18.0182 33.0489 18.0427Z" fill="white"/>
<path d="M6.34077 19.1269C6.20406 19.4776 5.87547 19.7228 5.49906 19.7228C5.1707 19.7228 4.8434 19.7228 4.51096 19.7228C4.32222 19.7228 4.18132 19.5342 4.24873 19.3579C4.42945 18.8669 4.64085 18.3895 4.99206 17.994C5.22733 17.7315 5.50693 17.5814 5.87518 17.5985C6.4079 17.6201 6.73567 18.2328 6.51366 18.7176C6.452 18.8522 6.39465 18.9887 6.34077 19.1269Z" fill="white"/>
<path d="M3.0472 21.2664C2.97358 21.5748 2.72206 21.7921 2.40505 21.7921C1.96121 21.7921 1.57894 21.368 1.71942 20.947C1.72442 20.932 1.72955 20.9171 1.73481 20.9022C1.88484 20.4794 2.06215 20.0668 2.23945 19.6542C2.28378 19.5485 2.36562 19.4599 2.43722 19.3678C2.6384 19.1086 2.89413 18.9586 3.23851 18.9893C3.4185 19.0039 3.55176 19.1619 3.5092 19.3374C3.3532 19.9808 3.20106 20.6219 3.0472 21.2664Z" fill="white"/>
<path d="M34.7883 20.5617C34.5857 19.7053 35.3046 18.8691 35.7556 19.6249C35.7777 19.6619 35.7991 19.7003 35.8199 19.74C36.1404 20.3504 36.3211 21.0016 36.4609 21.6699C36.4731 21.7368 36.4058 21.7927 36.3379 21.7927C36.1186 21.7927 35.9018 21.7927 35.6896 21.7927C35.3323 21.7927 35.0217 21.5472 34.9393 21.1994C34.8889 20.9864 34.8386 20.7739 34.7883 20.5617Z" fill="white"/>
<path d="M0.122751 25.7407C-0.0383388 25.0503 0.0481551 24.3237 0.183717 23.6279C0.199033 23.5493 0.215054 23.4702 0.231864 23.3914C0.262551 23.2414 0.351205 23.0879 0.453498 22.9686C0.508054 22.9038 0.654674 22.8629 0.739918 22.8868C0.85244 22.9174 0.924045 23.0197 0.920635 23.1698C0.903586 24.1279 0.893357 25.0895 0.886537 26.0476C0.886537 26.1567 0.893357 26.2692 0.917225 26.3749C0.951323 26.5454 0.869489 26.6511 0.729688 26.7159C0.579659 26.7841 0.460317 26.692 0.412581 26.5727C0.296649 26.3033 0.184127 26.0271 0.122751 25.7407Z" fill="white"/>
<path d="M37.9744 24.7178C37.9607 25.318 37.9232 25.8192 37.7425 26.2966C37.6982 26.4159 37.6402 26.5421 37.5515 26.6273C37.4868 26.6887 37.3538 26.7296 37.2685 26.7057C37.1526 26.675 37.0776 26.5728 37.0844 26.4261C37.1151 25.7033 37.1458 24.9838 37.1526 24.2609C37.156 23.9131 37.1219 23.5653 37.0878 23.2175C37.0708 23.0471 37.1356 22.9345 37.2754 22.8766C37.4186 22.8186 37.5243 22.9039 37.6027 23.0198C37.8107 23.3335 37.8721 23.6983 37.9232 24.0632C37.9607 24.3087 37.9641 24.561 37.9744 24.7178Z" fill="white"/>
<path d="M2.21482 29.8928C1.89091 29.3269 2.37571 28.6896 3.02765 28.7001C3.06516 28.7001 3.12994 28.7546 3.14017 28.7955C3.17704 28.932 3.21337 29.0685 3.24936 29.2051C3.44367 29.9424 2.77566 30.7584 2.35593 30.1219C2.30618 30.0467 2.25921 29.9704 2.21482 29.8928Z" fill="white"/>
<path d="M35.397 30.3983C34.9854 30.7854 34.5212 30.1108 34.6628 29.5637C34.727 29.3157 34.7917 29.069 34.8583 28.823C34.8719 28.7718 34.9435 28.7036 34.9913 28.7002C35.6293 28.6845 36.1281 29.3359 35.8035 29.8854C35.694 30.0707 35.5624 30.2433 35.397 30.3983Z" fill="white"/>
<path d="M34.1664 20.8236C34.1726 20.9159 34.1042 20.9975 34.0117 20.9975C33.4638 20.9975 32.9274 20.9975 32.3795 20.9975C32.2765 20.9975 32.1898 20.934 32.168 20.8333C32.1392 20.6994 32.239 20.5645 32.376 20.5645C32.4837 20.5645 32.5874 20.5645 32.69 20.5645C33.0753 20.5645 33.464 20.5815 33.8493 20.5577C34.0676 20.544 34.1562 20.6224 34.1664 20.8236Z" fill="white"/>
<path d="M4.16355 20.9975C3.98108 20.9975 3.82711 20.8268 3.88313 20.6531C3.89336 20.6156 3.95473 20.5713 3.99224 20.5713C4.5318 20.5683 5.06882 20.5679 5.62753 20.5679C5.76428 20.5679 5.86624 20.6979 5.83831 20.8317C5.81746 20.9316 5.73011 20.9975 5.62805 20.9975C5.13927 20.9975 4.65612 20.9975 4.16355 20.9975Z" fill="white"/>
<path d="M35.1582 22.9616C35.1224 22.7947 35.2817 22.6479 35.4525 22.6479C35.7759 22.6479 36.0951 22.6479 36.4197 22.6479C36.5307 22.6479 36.6235 22.7248 36.6353 22.8351C36.6493 22.965 36.5478 23.0844 36.4172 23.0846C36.0224 23.0852 35.6437 23.0861 35.2673 23.0776C35.2298 23.0776 35.1684 23.0094 35.1582 22.9616Z" fill="white"/>
<path d="M1.36669 22.8364C1.37904 22.7262 1.47181 22.645 1.58266 22.645C1.99148 22.645 2.38439 22.645 2.77872 22.645C2.81627 22.645 2.86108 22.6654 2.86108 22.703C2.84062 23.1769 2.88835 23.0781 2.47577 23.0849C2.1828 23.0903 1.88982 23.0872 1.58516 23.0856C1.45359 23.0849 1.35203 22.9672 1.36669 22.8364Z" fill="white"/>
</svg>
